<svg id="svg" version="1.1" xmlns="http://www.w3.org/2000/svg" xmlns:xlink="http://www.w3.org/1999/xlink" width="400" height="156.02420685860994" viewBox="0, 0, 400,156.02420685860994"><g id="svgg"><path id="path0" d="M198.000 16.765 C 197.679 16.798,196.554 16.911,195.500 17.016 C 190.555 17.508,184.764 19.841,181.065 22.831 C 180.781 23.062,180.368 23.392,180.149 23.566 C 178.689 24.723,175.985 27.599,174.806 29.250 C 173.619 30.911,171.333 35.118,171.333 35.641 C 171.333 35.715,171.140 36.251,170.905 36.831 C 169.272 40.849,168.761 47.703,169.756 52.254 C 169.895 52.894,170.078 53.792,170.161 54.250 C 170.517 56.214,171.931 59.621,173.446 62.167 C 180.128 73.394,194.057 79.305,206.195 76.064 C 207.050 75.836,208.050 75.581,208.417 75.499 C 209.879 75.171,213.157 73.644,215.667 72.122 C 217.678 70.902,221.055 67.880,222.695 65.833 C 223.597 64.708,225.000 62.744,225.000 62.607 C 225.000 62.552,225.252 62.111,225.560 61.628 C 225.868 61.145,226.174 60.578,226.240 60.368 C 226.469 59.640,228.396 62.634,229.198 64.965 C 230.416 68.503,229.935 71.067,227.590 73.531 C 225.348 75.887,223.899 77.435,222.166 79.323 C 221.204 80.371,220.154 81.498,219.833 81.828 C 219.512 82.157,218.425 83.317,217.417 84.405 C 216.408 85.493,215.358 86.619,215.083 86.908 C 214.808 87.196,213.683 88.401,212.583 89.585 C 209.148 93.286,201.832 101.112,200.125 102.914 L 199.333 103.750 198.625 102.998 C 198.235 102.585,197.054 101.316,196.000 100.179 C 194.946 99.042,193.858 97.874,193.583 97.583 C 192.157 96.075,190.944 94.783,189.826 93.580 C 182.872 86.098,177.132 79.939,176.080 78.833 C 175.025 77.723,171.473 73.917,167.917 70.085 C 166.817 68.900,165.692 67.695,165.417 67.407 C 165.142 67.119,164.092 65.993,163.083 64.905 C 162.075 63.817,160.987 62.657,160.667 62.328 C 160.346 61.999,159.296 60.876,158.333 59.832 C 157.371 58.788,156.052 57.368,155.402 56.675 C 154.752 55.983,153.697 54.854,153.058 54.167 C 148.826 49.618,146.762 47.500,146.563 47.500 C 146.370 47.500,146.333 49.330,146.333 58.864 L 146.333 70.229 147.292 71.216 C 148.410 72.368,148.792 72.775,151.250 75.422 C 152.258 76.508,153.268 77.589,153.494 77.824 C 153.720 78.058,154.312 78.700,154.811 79.250 C 155.309 79.800,156.288 80.850,156.987 81.583 C 157.686 82.317,159.864 84.642,161.829 86.750 C 163.793 88.858,165.860 91.071,166.422 91.667 C 166.985 92.263,168.107 93.462,168.917 94.333 C 169.726 95.204,170.849 96.404,171.413 97.000 C 171.976 97.596,174.419 100.221,176.842 102.833 C 194.458 121.834,198.609 123.862,206.600 117.377 C 209.566 114.970,211.614 113.044,218.168 106.500 C 222.458 102.217,223.106 101.544,226.833 97.501 C 227.796 96.457,228.846 95.333,229.167 95.003 C 229.487 94.672,230.575 93.512,231.583 92.423 C 232.592 91.335,233.985 89.838,234.680 89.097 C 235.374 88.356,237.653 85.912,239.744 83.667 C 241.835 81.421,244.042 79.055,244.648 78.410 C 245.254 77.765,246.575 76.353,247.583 75.271 C 248.592 74.190,250.070 72.618,250.869 71.778 L 252.321 70.250 252.327 58.875 C 252.332 49.547,252.294 47.500,252.113 47.500 C 251.908 47.500,249.580 49.888,246.122 53.645 C 239.861 60.448,233.355 54.720,228.027 37.716 C 224.581 26.718,214.832 18.405,203.833 17.087 C 201.682 16.829,198.881 16.675,198.000 16.765 M203.059 32.077 C 216.160 35.586,218.615 52.944,206.987 59.853 C 205.754 60.585,202.884 61.663,202.158 61.665 C 201.357 61.668,201.333 61.794,201.333 66.117 L 201.333 70.167 199.333 70.167 L 197.333 70.167 197.333 66.003 L 197.333 61.840 196.875 61.744 C 194.645 61.276,193.300 60.777,191.659 59.811 C 180.347 53.151,182.327 36.447,194.923 32.275 C 196.860 31.633,201.024 31.532,203.059 32.077 M75.164 130.503 C 74.656 130.977,74.630 131.058,74.703 131.935 C 74.752 132.525,74.714 132.884,74.598 132.918 C 74.498 132.948,74.228 133.013,73.998 133.063 C 73.192 133.237,72.686 134.769,73.149 135.633 C 73.703 136.669,75.307 136.887,76.148 136.042 L 76.604 135.583 76.981 136.042 C 77.547 136.728,78.979 136.713,79.679 136.013 C 80.644 135.048,80.149 133.301,78.830 133.014 C 78.449 132.932,78.271 132.808,78.312 132.653 C 78.868 130.530,76.711 129.057,75.164 130.503 M19.894 130.958 C 19.740 131.210,19.447 131.679,19.243 132.000 C 15.374 138.099,15.667 137.523,15.667 139.042 C 15.667 140.648,15.692 140.667,17.842 140.667 C 20.685 140.667,21.000 140.882,21.000 142.822 L 21.000 144.000 15.750 144.000 L 10.500 144.000 10.500 142.026 C 10.500 139.560,10.455 139.500,8.612 139.500 C 7.592 139.500,7.333 139.450,7.333 139.252 C 7.333 139.116,7.024 138.800,6.646 138.550 L 5.959 138.095 5.597 138.549 C 3.710 140.915,3.425 144.750,4.904 147.859 C 5.715 149.563,5.811 149.630,6.655 149.072 C 7.474 148.530,7.470 148.594,6.760 147.297 C 5.704 145.369,5.592 142.741,6.487 140.901 L 6.790 140.279 6.865 142.681 C 6.967 145.922,7.381 146.867,8.947 147.425 C 9.818 147.736,24.159 147.774,24.467 147.467 C 24.726 147.207,24.741 141.862,24.486 140.672 C 24.115 138.945,22.662 137.533,20.958 137.244 C 20.615 137.185,20.333 137.104,20.333 137.064 C 20.333 136.940,22.122 134.121,22.658 133.400 C 23.415 132.383,23.345 132.141,22.033 131.261 C 20.716 130.377,20.287 130.316,19.894 130.958 M27.533 130.700 C 27.189 131.044,27.251 147.433,27.597 147.566 C 28.085 147.753,30.591 147.675,30.800 147.467 C 31.138 147.128,31.082 131.358,30.741 130.870 C 30.440 130.441,27.926 130.307,27.533 130.700 M45.540 130.638 C 45.375 130.743,45.339 132.563,45.373 139.177 L 45.417 147.583 57.667 147.583 L 69.917 147.583 70.555 147.206 L 71.193 146.829 71.721 147.206 C 72.494 147.757,75.604 147.768,76.526 147.223 L 77.136 146.863 77.929 147.265 C 78.846 147.729,83.547 147.886,83.967 147.467 C 84.112 147.321,84.167 146.035,84.167 142.726 C 84.167 137.400,84.266 137.667,82.285 137.667 C 80.423 137.667,80.500 137.522,80.500 141.006 L 80.500 144.000 79.787 144.000 C 78.465 144.000,78.333 143.775,78.333 141.522 C 78.333 138.945,78.355 138.973,76.331 139.035 L 74.750 139.083 74.704 141.542 L 74.658 144.000 73.829 144.000 C 72.538 144.000,72.333 143.697,72.333 141.783 C 72.333 139.849,72.318 139.833,70.487 139.833 C 68.679 139.833,68.690 139.820,68.631 142.093 L 68.583 143.917 65.458 143.962 L 62.333 144.007 62.330 142.212 C 62.323 138.751,60.705 136.915,57.667 136.918 C 54.448 136.921,52.280 139.143,52.259 142.458 L 52.250 144.000 50.542 144.000 L 48.833 144.000 48.833 137.450 C 48.833 132.578,48.782 130.849,48.633 130.700 C 48.407 130.474,45.879 130.424,45.540 130.638 M126.519 130.727 C 126.383 130.891,126.342 133.268,126.373 139.269 L 126.417 147.583 129.583 147.632 C 133.232 147.689,133.642 147.639,134.327 147.063 L 134.830 146.640 135.258 146.977 C 136.245 147.753,139.611 147.879,140.948 147.190 C 144.307 145.459,144.181 139.328,140.750 137.522 C 137.379 135.748,133.584 138.119,133.245 142.211 C 133.105 143.897,132.994 144.000,131.321 144.000 L 130.000 144.000 130.000 137.526 C 130.000 129.910,130.164 130.500,128.049 130.500 C 127.119 130.500,126.650 130.570,126.519 130.727 M184.353 131.583 C 183.975 132.179,183.355 133.173,182.975 133.792 C 182.595 134.410,182.083 135.217,181.839 135.583 C 180.648 137.370,180.500 137.751,180.500 139.038 C 180.500 140.659,180.511 140.667,182.792 140.667 C 185.534 140.667,186.000 141.021,186.000 143.108 L 186.000 144.000 181.676 144.000 C 176.363 144.000,176.833 144.318,176.833 140.722 C 176.833 137.672,176.830 137.667,174.880 137.667 C 172.915 137.667,173.000 137.425,173.000 142.989 C 173.000 148.788,172.954 148.919,171.082 148.500 C 169.773 148.206,169.545 148.609,169.436 151.401 C 169.412 152.014,169.869 152.166,171.785 152.179 C 174.495 152.198,176.667 150.267,176.667 147.839 C 176.667 147.374,176.686 147.362,177.207 147.512 C 178.489 147.879,189.304 147.700,189.514 147.308 C 189.864 146.652,189.636 140.911,189.222 139.992 C 188.549 138.492,187.588 137.701,185.927 137.276 L 185.172 137.083 186.670 134.791 C 188.221 132.416,188.366 132.066,187.876 131.878 C 187.716 131.816,187.209 131.482,186.751 131.134 C 185.522 130.202,185.188 130.265,184.353 131.583 M192.373 130.638 C 192.208 130.743,192.173 132.563,192.207 139.177 L 192.250 147.583 193.917 147.583 L 195.583 147.583 195.627 139.269 C 195.658 133.268,195.617 130.891,195.481 130.727 C 195.272 130.475,192.745 130.402,192.373 130.638 M351.429 130.762 C 351.085 131.106,351.025 147.125,351.367 147.467 C 352.005 148.105,358.891 147.630,359.436 146.910 C 359.596 146.699,359.735 146.729,360.436 147.124 C 361.558 147.757,364.655 147.811,365.766 147.218 C 369.157 145.405,369.029 139.256,365.563 137.502 C 362.091 135.745,358.498 138.064,358.015 142.376 C 357.828 144.042,357.874 144.000,356.240 144.000 L 354.833 144.000 354.833 137.572 C 354.833 133.460,354.771 131.029,354.661 130.822 C 354.429 130.388,351.850 130.340,351.429 130.762 M370.867 130.700 C 370.717 130.850,370.667 132.941,370.667 139.083 C 370.667 145.226,370.717 147.317,370.867 147.467 C 371.443 148.043,381.305 147.663,382.159 147.032 C 382.597 146.708,382.598 146.708,383.046 147.093 C 383.926 147.851,386.854 147.862,387.987 147.112 L 388.597 146.708 389.046 147.093 C 389.622 147.589,390.420 147.696,393.083 147.634 L 395.250 147.583 395.294 142.833 C 395.335 138.516,395.313 138.064,395.054 137.875 C 394.717 137.628,392.870 137.598,392.261 137.829 L 391.833 137.992 391.833 140.996 L 391.833 144.000 391.004 144.000 C 389.787 144.000,389.606 143.650,389.500 141.092 L 389.417 139.083 387.750 139.083 L 386.083 139.083 386.043 141.167 C 385.987 144.005,385.989 144.000,385.112 144.000 C 383.909 144.000,383.759 143.777,383.692 141.889 C 383.619 139.821,383.630 139.833,381.833 139.833 C 380.011 139.833,380.024 139.818,379.964 142.093 L 379.917 143.917 377.125 143.962 L 374.333 144.008 374.333 137.576 C 374.333 133.462,374.271 131.029,374.161 130.822 C 373.954 130.436,371.232 130.335,370.867 130.700 M56.902 133.002 C 54.743 133.471,55.222 136.500,57.456 136.500 C 59.474 136.500,60.139 133.496,58.214 133.074 C 57.959 133.018,57.675 132.954,57.583 132.931 C 57.492 132.909,57.185 132.940,56.902 133.002 M121.171 133.018 C 119.149 133.445,119.642 136.500,121.733 136.500 C 123.079 136.500,123.571 136.036,123.571 134.768 C 123.571 133.363,122.664 132.702,121.171 133.018 M174.583 132.964 C 173.581 133.124,172.877 134.096,173.069 135.055 C 173.493 137.173,176.833 136.965,176.833 134.820 C 176.833 133.533,175.891 132.756,174.583 132.964 M282.690 133.006 C 281.706 133.227,281.260 134.111,281.518 135.329 C 281.784 136.590,283.690 137.002,284.679 136.013 C 284.965 135.728,285.167 135.620,285.167 135.753 C 285.167 136.607,287.393 136.799,288.179 136.013 C 288.858 135.334,288.870 134.233,288.208 133.493 C 287.448 132.644,285.167 132.866,285.167 133.789 C 285.167 133.996,285.045 133.933,284.708 133.552 C 284.207 132.983,283.565 132.810,282.690 133.006 M321.250 132.972 C 320.349 133.071,319.518 134.218,319.731 135.067 C 320.277 137.241,323.500 136.970,323.500 134.750 C 323.500 133.480,322.660 132.817,321.250 132.972 M346.417 132.929 C 346.325 132.952,346.045 133.016,345.794 133.071 C 345.179 133.207,344.596 134.322,344.740 135.086 C 345.009 136.520,346.967 137.059,348.033 135.992 C 349.191 134.834,347.981 132.541,346.417 132.929 M254.673 135.989 C 254.578 136.166,254.500 136.496,254.500 136.721 C 254.500 137.011,254.387 137.159,254.111 137.228 C 251.957 137.769,249.846 140.410,249.579 142.896 L 249.461 144.000 247.814 144.000 L 246.167 144.000 246.167 143.423 C 246.167 139.253,244.816 137.935,240.326 137.724 C 237.043 137.570,237.333 137.129,237.333 142.264 C 237.333 147.425,237.243 147.694,235.250 148.463 C 231.193 150.028,227.631 147.276,229.513 144.032 C 230.126 142.976,229.880 142.608,227.883 141.602 C 227.002 141.158,226.897 141.235,226.049 142.943 C 223.850 147.373,226.330 151.892,231.208 152.343 C 237.872 152.960,240.835 150.517,240.972 144.292 C 241.036 141.376,241.042 141.333,241.403 141.333 C 242.320 141.333,242.394 141.564,242.493 144.689 L 242.583 147.583 252.750 147.583 L 262.917 147.583 262.917 144.583 C 262.917 141.170,262.701 140.423,261.262 138.855 C 260.604 138.139,258.895 137.167,258.292 137.167 C 258.090 137.167,258.000 137.035,258.000 136.739 C 258.000 135.801,257.780 135.667,256.250 135.667 C 255.032 135.667,254.822 135.709,254.673 135.989 M34.375 137.021 C 34.159 137.242,34.077 139.572,34.268 140.070 C 34.350 140.284,34.661 140.333,35.940 140.333 C 38.529 140.333,38.931 140.639,39.109 142.742 L 39.216 144.000 36.295 144.000 C 32.794 144.000,32.969 143.891,33.035 146.025 L 33.083 147.583 37.833 147.583 L 42.583 147.583 42.628 144.197 C 42.690 139.567,42.305 138.462,40.262 137.420 C 39.128 136.842,34.836 136.550,34.375 137.021 M154.458 137.121 C 154.241 137.360,154.167 137.731,154.167 138.566 C 154.167 140.287,154.218 140.333,156.095 140.333 C 158.730 140.333,159.167 140.675,159.167 142.739 L 159.167 144.000 156.283 144.000 C 152.852 144.000,153.000 143.917,153.000 145.833 C 153.000 146.726,153.075 147.342,153.200 147.467 C 153.541 147.807,162.600 147.747,162.732 147.403 C 162.889 146.995,162.845 141.710,162.675 140.537 C 162.479 139.176,161.755 138.145,160.500 137.436 C 159.291 136.754,154.994 136.529,154.458 137.121 M266.339 137.156 C 266.098 137.607,266.119 139.885,266.367 140.133 C 266.493 140.260,267.131 140.333,268.106 140.333 C 270.572 140.333,270.961 140.644,271.119 142.739 L 271.215 144.000 268.294 144.000 C 264.794 144.000,264.969 143.891,265.035 146.025 L 265.083 147.583 269.730 147.628 C 273.018 147.659,274.443 147.617,274.605 147.482 C 274.896 147.241,274.927 141.960,274.646 140.633 C 274.037 137.764,272.567 136.833,268.646 136.833 C 266.706 136.833,266.496 136.863,266.339 137.156 M308.917 137.065 C 303.041 138.914,303.823 147.213,309.911 147.613 L 311.483 147.716 311.234 148.198 C 310.884 148.874,310.415 149.000,308.260 149.000 C 306.021 149.000,306.074 148.959,305.954 150.792 C 305.850 152.393,305.792 152.327,307.475 152.520 C 311.578 152.989,314.324 151.481,314.961 148.409 L 315.098 147.750 319.174 147.667 L 323.250 147.583 323.294 142.854 C 323.347 137.250,323.470 137.613,321.536 137.693 C 319.627 137.771,319.667 137.696,319.667 141.199 L 319.667 144.000 317.439 144.000 L 315.210 144.000 315.134 142.292 C 314.954 138.270,312.267 136.011,308.917 137.065 M334.740 136.980 C 329.835 138.248,328.953 145.263,333.444 147.294 C 334.019 147.554,334.799 147.583,341.167 147.583 L 348.250 147.583 348.294 142.833 C 348.346 137.309,348.467 137.667,346.551 137.667 C 344.674 137.667,344.667 137.679,344.667 141.167 L 344.667 144.000 342.667 144.000 L 340.667 144.000 340.667 142.423 C 340.667 138.584,338.001 136.137,334.740 136.980 M211.711 137.301 C 209.700 138.106,208.620 139.614,208.324 142.029 C 208.062 144.165,208.234 144.000,206.280 143.997 C 203.827 143.994,203.833 144.003,203.833 140.507 L 203.833 137.992 203.406 137.829 C 202.792 137.596,200.783 137.627,200.453 137.875 C 200.207 138.060,200.171 138.647,200.130 143.057 L 200.083 148.030 199.675 148.361 C 199.263 148.694,199.213 148.694,197.640 148.385 C 197.002 148.259,196.721 148.808,196.582 150.456 L 196.466 151.829 196.919 152.001 C 199.785 153.090,202.893 151.392,203.668 148.312 L 203.858 147.559 205.666 147.634 C 207.943 147.728,208.866 147.591,209.486 147.069 L 209.974 146.659 210.575 147.067 C 212.203 148.172,215.936 147.748,217.284 146.305 C 219.047 144.417,218.767 139.611,216.807 138.115 C 215.348 137.002,213.281 136.672,211.711 137.301 M107.458 137.833 C 107.193 138.000,107.167 138.401,107.167 142.277 C 107.167 148.105,106.702 148.794,102.769 148.803 C 99.507 148.811,97.905 146.536,99.365 143.969 C 99.904 143.021,99.840 142.857,98.642 142.108 C 97.136 141.167,96.896 141.201,96.157 142.460 C 92.909 147.998,96.951 152.968,104.191 152.339 C 108.779 151.941,110.678 149.628,110.799 144.292 L 110.866 141.333 111.260 141.333 C 112.179 141.333,112.333 141.815,112.333 144.678 C 112.333 146.688,112.386 147.336,112.562 147.482 C 112.724 147.617,114.321 147.659,118.103 147.627 L 123.417 147.583 123.461 142.833 C 123.513 137.329,123.622 137.667,121.791 137.667 C 119.922 137.667,120.000 137.521,120.000 141.006 L 120.000 144.000 118.000 144.000 L 116.000 144.000 115.999 142.792 C 115.997 140.554,115.240 139.092,113.667 138.290 C 112.632 137.763,108.099 137.429,107.458 137.833 M147.792 137.847 C 147.525 138.002,147.500 138.414,147.500 142.680 C 147.500 148.687,147.438 148.867,145.497 148.499 C 144.380 148.288,144.160 148.462,143.983 149.702 C 143.698 151.707,143.752 151.957,144.500 152.083 C 147.509 152.592,149.766 151.606,150.676 149.385 C 151.281 147.910,151.405 138.430,150.826 137.961 C 150.414 137.627,148.305 137.547,147.792 137.847 M290.292 137.847 C 290.031 137.998,290.000 138.335,290.000 141.008 L 290.000 144.000 284.667 144.000 L 279.333 144.000 279.333 141.950 C 279.333 139.456,279.366 139.500,277.500 139.500 C 275.609 139.500,275.667 139.412,275.667 142.306 C 275.667 145.735,276.238 147.026,277.962 147.490 C 279.406 147.879,291.131 147.654,291.859 147.223 L 292.469 146.863 293.263 147.265 C 294.048 147.662,301.347 147.907,302.236 147.566 C 302.468 147.477,302.500 146.894,302.500 142.738 C 302.500 137.208,302.655 137.594,300.473 137.693 C 298.784 137.770,298.839 137.656,298.836 141.125 L 298.833 144.000 296.680 144.000 C 293.464 144.000,293.500 144.042,293.500 140.361 C 293.500 137.921,293.493 137.870,293.125 137.772 C 292.524 137.611,290.610 137.661,290.292 137.847 M86.269 138.703 L 85.636 139.250 86.359 140.583 L 87.083 141.917 87.079 143.833 C 87.074 145.854,86.838 146.723,86.006 147.780 C 85.513 148.407,85.577 148.600,86.447 149.110 L 87.226 149.567 87.548 149.137 C 89.533 146.478,89.727 142.541,88.027 139.417 C 87.281 138.045,87.110 137.976,86.269 138.703 M58.181 140.714 C 58.664 141.084,58.833 141.632,58.833 142.822 L 58.833 144.000 57.821 144.000 C 56.135 144.000,55.338 142.775,56.083 141.333 C 56.495 140.536,57.546 140.226,58.181 140.714 M139.077 140.761 C 140.188 141.489,140.019 143.823,138.836 144.083 C 137.764 144.318,137.122 143.973,136.926 143.056 C 136.562 141.353,137.863 139.966,139.077 140.761 M214.388 140.996 C 215.484 142.299,214.921 144.167,213.431 144.167 C 212.236 144.167,211.593 143.011,212.080 141.736 C 212.578 140.432,213.629 140.095,214.388 140.996 M311.064 141.050 C 311.323 141.399,311.427 141.831,311.474 142.758 L 311.536 144.000 310.614 144.000 C 309.028 144.000,308.093 142.771,308.734 141.530 C 309.307 140.422,310.426 140.192,311.064 141.050 M336.708 141.167 C 336.899 141.549,337.000 142.138,337.000 142.875 L 337.000 144.000 336.120 144.000 C 335.094 144.000,334.565 143.696,334.241 142.921 C 333.546 141.257,335.912 139.573,336.708 141.167 M363.939 140.795 C 365.182 141.803,364.791 144.171,363.383 144.164 C 362.239 144.159,361.667 143.605,361.667 142.503 C 361.667 140.934,362.934 139.981,363.939 140.795 M254.500 142.417 L 254.500 144.000 253.729 144.000 L 252.957 144.000 253.072 143.125 C 253.203 142.127,253.942 140.908,254.458 140.839 C 254.481 140.836,254.500 141.546,254.500 142.417 M259.099 142.033 C 259.228 142.281,259.333 142.825,259.333 143.242 L 259.333 144.000 258.667 144.000 L 258.000 144.000 258.000 142.388 L 258.000 140.775 258.433 141.179 C 258.670 141.402,258.970 141.786,259.099 142.033 M299.583 148.423 C 297.986 149.234,298.138 151.377,299.826 151.831 C 302.123 152.450,303.243 149.181,301.031 148.317 C 300.490 148.106,300.160 148.130,299.583 148.423 " stroke="none" fill="#5c4484" fill-rule="evenodd"></path><path id="path1" d="M196.500 32.087 C 180.674 35.334,180.481 58.189,196.253 61.376 L 197.417 61.611 197.461 65.806 L 197.506 70.000 199.336 70.000 L 201.167 70.000 201.167 65.837 L 201.167 61.673 201.625 61.572 C 205.485 60.719,207.554 59.643,209.917 57.262 C 220.197 46.901,210.745 29.164,196.500 32.087 M202.511 37.398 C 209.501 39.829,211.528 48.453,206.339 53.682 C 200.093 59.976,189.500 55.634,189.500 46.781 C 189.500 39.984,196.152 35.187,202.511 37.398 " stroke="none" fill="#fbfbfb" fill-rule="evenodd"></path><path id="path2" d="M196.660 0.410 C 191.319 3.193,193.313 11.361,199.333 11.361 C 205.494 11.361,207.378 3.118,201.859 0.304 C 200.897 -0.186,197.679 -0.121,196.660 0.410 M183.212 5.504 C 178.607 6.444,176.866 11.951,180.120 15.284 C 182.897 18.127,187.948 17.281,189.539 13.706 C 191.435 9.443,187.691 4.590,183.212 5.504 M213.388 5.502 C 206.439 6.925,207.339 16.917,214.417 16.917 C 221.808 16.917,222.273 6.241,214.917 5.450 C 214.458 5.401,213.771 5.424,213.388 5.502 M197.201 37.254 C 190.420 38.727,187.360 46.918,191.495 52.531 C 197.108 60.151,209.169 56.066,209.057 46.583 C 208.985 40.430,203.273 35.936,197.201 37.254 " stroke="none" fill="#fc2c24" fill-rule="evenodd"></path><path id="path3" d="M198.458 31.790 C 198.940 31.823,199.727 31.823,200.208 31.790 C 200.690 31.756,200.296 31.728,199.333 31.728 C 198.371 31.728,197.977 31.756,198.458 31.790 M194.615 32.364 C 193.217 32.851,193.534 32.894,195.007 32.417 C 195.691 32.196,196.100 32.017,195.917 32.021 C 195.733 32.024,195.147 32.178,194.615 32.364 M202.833 32.167 C 203.403 32.349,203.841 32.349,203.417 32.167 C 203.233 32.088,202.933 32.026,202.750 32.028 C 202.482 32.032,202.498 32.059,202.833 32.167 M206.260 33.467 C 209.506 35.191,211.953 37.914,213.357 41.368 C 213.629 42.036,213.804 42.360,213.746 42.086 C 213.103 39.048,209.655 35.013,206.214 33.273 C 204.888 32.602,204.924 32.758,206.260 33.467 M192.292 33.345 C 191.948 33.526,191.667 33.712,191.667 33.757 C 191.667 33.832,192.983 33.216,193.153 33.063 C 193.345 32.889,192.844 33.053,192.292 33.345 M189.060 35.708 C 187.824 36.880,186.779 38.145,186.340 39.000 C 186.038 39.587,186.318 39.261,187.211 37.984 C 187.634 37.380,188.555 36.348,189.257 35.692 C 189.959 35.037,190.489 34.500,190.434 34.500 C 190.379 34.500,189.761 35.044,189.060 35.708 M185.477 40.597 C 185.291 41.017,185.168 41.391,185.205 41.427 C 185.241 41.463,185.428 41.119,185.621 40.663 C 185.814 40.207,185.936 39.833,185.893 39.833 C 185.850 39.833,185.663 40.177,185.477 40.597 M184.762 42.595 C 184.701 42.839,184.683 43.071,184.722 43.111 C 184.761 43.150,184.843 42.982,184.905 42.738 C 184.966 42.494,184.984 42.262,184.945 42.223 C 184.906 42.183,184.823 42.351,184.762 42.595 M184.445 43.815 C 184.384 44.123,184.342 44.534,184.352 44.729 C 184.362 44.924,184.436 44.746,184.517 44.333 C 184.599 43.921,184.641 43.510,184.611 43.419 C 184.582 43.329,184.507 43.507,184.445 43.815 M214.396 46.750 C 214.396 47.758,214.424 48.149,214.457 47.619 C 214.490 47.088,214.490 46.263,214.456 45.786 C 214.422 45.308,214.395 45.742,214.396 46.750 M184.228 46.750 C 184.228 47.667,184.256 48.020,184.290 47.536 C 184.324 47.052,184.323 46.302,184.289 45.869 C 184.255 45.437,184.227 45.833,184.228 46.750 M184.372 49.000 C 184.372 49.321,184.406 49.452,184.448 49.292 C 184.490 49.131,184.490 48.869,184.448 48.708 C 184.406 48.548,184.372 48.679,184.372 49.000 M213.778 50.815 C 212.490 55.814,208.235 59.949,202.951 61.333 C 202.291 61.507,201.938 61.652,202.167 61.656 C 204.370 61.697,209.078 58.874,211.149 56.272 C 212.568 54.488,214.385 50.572,214.137 49.829 C 214.105 49.731,213.943 50.175,213.778 50.815 M185.002 51.642 C 184.992 52.748,187.692 56.787,189.380 58.192 C 191.522 59.975,195.086 61.695,196.559 61.657 C 196.756 61.652,196.388 61.510,195.741 61.340 C 191.190 60.147,187.415 56.938,185.559 52.688 C 185.254 51.989,185.003 51.518,185.002 51.642 M197.162 61.776 C 197.272 61.831,197.333 63.344,197.333 66.014 L 197.333 70.167 199.333 70.167 L 201.333 70.167 201.333 66.117 C 201.333 63.106,201.387 62.010,201.542 61.846 C 201.710 61.668,201.702 61.640,201.500 61.701 C 201.288 61.766,201.243 62.406,201.205 65.889 L 201.161 70.000 199.333 70.000 L 197.506 70.000 197.461 65.889 C 197.427 62.719,197.368 61.768,197.204 61.735 C 197.087 61.711,197.069 61.730,197.162 61.776 " stroke="none" fill="#7f6c9f" fill-rule="evenodd"></path><path id="path4" d="M198.792 36.954 C 199.090 36.991,199.577 36.991,199.875 36.954 C 200.173 36.917,199.929 36.887,199.333 36.887 C 198.737 36.887,198.494 36.917,198.792 36.954 M196.458 37.267 C 196.023 37.401,195.667 37.553,195.667 37.606 C 195.667 37.659,195.798 37.650,195.958 37.586 C 196.119 37.522,196.700 37.370,197.250 37.248 C 197.869 37.111,198.059 37.026,197.750 37.025 C 197.475 37.024,196.894 37.133,196.458 37.267 M201.417 37.234 C 201.967 37.364,202.567 37.515,202.750 37.571 C 202.933 37.626,202.835 37.556,202.532 37.415 C 202.228 37.273,201.628 37.122,201.198 37.078 C 200.467 37.003,200.481 37.013,201.417 37.234 M204.042 38.217 C 206.753 39.761,208.925 42.962,209.019 45.550 C 209.032 45.898,209.067 45.970,209.122 45.757 C 209.664 43.621,205.340 37.664,203.250 37.670 C 203.158 37.671,203.515 37.916,204.042 38.217 M194.083 38.361 C 192.287 39.485,189.819 42.749,189.837 43.978 C 189.839 44.127,190.016 43.826,190.229 43.307 C 191.106 41.174,192.304 39.717,194.173 38.509 C 194.748 38.137,195.150 37.835,195.068 37.837 C 194.985 37.838,194.542 38.074,194.083 38.361 M189.605 44.848 C 189.547 45.138,189.510 45.647,189.521 45.979 C 189.535 46.388,189.587 46.235,189.681 45.508 C 189.829 44.368,189.782 43.964,189.605 44.848 M209.209 46.750 C 209.211 47.117,209.245 47.247,209.285 47.040 C 209.324 46.832,209.323 46.532,209.281 46.373 C 209.239 46.214,209.207 46.383,209.209 46.750 M189.521 47.590 C 189.420 50.811,192.801 55.236,196.000 56.071 C 196.229 56.131,195.892 55.926,195.250 55.616 C 192.164 54.124,190.107 51.312,189.682 48.000 C 189.572 47.144,189.538 47.058,189.521 47.590 M209.023 47.917 C 208.868 50.800,206.569 54.042,203.652 55.492 C 202.881 55.876,202.438 56.138,202.667 56.076 C 205.790 55.225,209.520 50.472,209.118 47.857 C 209.053 47.435,209.049 47.438,209.023 47.917 M196.833 56.370 C 197.390 56.634,201.277 56.634,201.833 56.370 C 202.203 56.195,202.174 56.186,201.583 56.294 C 201.217 56.362,200.204 56.417,199.333 56.417 C 198.463 56.417,197.450 56.362,197.083 56.294 C 196.493 56.186,196.464 56.195,196.833 56.370 " stroke="none" fill="#fcacaa" fill-rule="evenodd"></path></g></svg>